<?xml version="1.0" encoding="utf-8"?>
<!-- Generator: Adobe Illustrator 21.0.0, SVG Export Plug-In . SVG Version: 6.00 Build 0)  -->
<svg version="1.1" id="Layer_1" xmlns="http://www.w3.org/2000/svg" xmlns:xlink="http://www.w3.org/1999/xlink" x="0px" y="0px"
	 viewBox="0 0 3000 473" style="enable-background:new 0 0 3000 473;" xml:space="preserve">
<style type="text/css">
	.st0{fill:#CCCCCC;}
	.st1{fill:#B3B3B3;}
	.st2{fill:#E6E6E6;}
	.st3{fill:#4D4D4D;}
	.st4{fill:#999999;}
	.st5{fill:#ECECEC;}
	.st6{fill:#F2F2F2;}
	.st7{fill:#333333;}
	.st8{stroke:#000000;stroke-width:0.1366;}
	.st9{stroke:#000000;stroke-width:0.159;}
	.st10{stroke:#000000;stroke-width:0.1069;}
	.st11{stroke:#000000;stroke-width:0.1296;}
	.st12{stroke:#000000;stroke-width:0.1166;}
	.st13{stroke:#000000;stroke-width:0.1104;}
	.st14{stroke:#000000;stroke-width:0.1218;}
	.st15{stroke:#000000;stroke-width:0.134;}
	.st16{stroke:#000000;stroke-width:0.1263;}
	.st17{stroke:#000000;stroke-width:0.1429;}
	.st18{stroke:#000000;stroke-width:0.1869;}
	.st19{stroke:#000000;stroke-width:0.2013;}
	.st20{stroke:#000000;stroke-width:0.2;}
	.st21{fill:none;stroke:#000000;stroke-width:0.324;}
	.st22{fill:none;stroke:#000000;stroke-width:0.311;}
	.st23{stroke:#000000;stroke-width:0.1635;}
	.st24{stroke:#000000;stroke-width:1.530600e-02;}
	.st25{fill:#1A1A1A;}
	.st26{fill:#1A1A1A;stroke:#1A1A1A;stroke-width:2.4423;}
	.st27{stroke:#000000;stroke-width:0.8839;}
	.st28{stroke:#000000;stroke-width:2.4423;}
	.st29{stroke:#000000;stroke-width:0.8276;}
	.st30{stroke:#000000;stroke-width:0.2088;}
	.st31{fill:#1A1A1A;stroke:#1A1A1A;stroke-width:2.3223;}
	.st32{stroke:#000000;stroke-width:7.077100e-02;}
	.st33{stroke:#000000;stroke-width:6.956000e-02;}
	.st34{stroke:#000000;stroke-width:0.24;}
	.st35{fill:#0E0E0E;}
	.st36{fill:#0D0D0D;}
	.st37{stroke:#000000;}
	.st38{fill:none;stroke:#000000;stroke-width:3.3;}
	.st39{fill:none;stroke:#000000;}
	.st40{fill:none;stroke:#000000;stroke-width:2;}
	.st41{fill:none;stroke:#000000;stroke-width:2.1378;}
	.st42{stroke:#000000;stroke-width:0.9041;}
	.st43{fill:none;stroke:#000000;stroke-width:3;}
	.st44{fill:none;stroke:#000000;stroke-width:2.9;}
	.st45{stroke:#000000;stroke-width:0.2055;}
	.st46{stroke:#000000;stroke-width:7.177900e-02;}
	.st47{fill:none;stroke:#000000;stroke-width:0.9;}
	.st48{fill:none;stroke:#000000;stroke-width:2.8275;}
	.st49{fill:none;stroke:#000000;stroke-width:0.3055;}
	.st50{stroke:#000000;stroke-width:0.9;}
	.st51{stroke:#000000;stroke-width:0.3486;}
	.st52{stroke:#000000;stroke-width:0.3527;}
	.st53{fill:#0F0F0F;stroke:#000000;stroke-width:0.1233;}
	.st54{fill:#FFFFFF;}
	.st55{fill:#0F0F0F;}
	.st56{fill:#0E0E0E;stroke:#000000;stroke-width:1.812300e-02;}
	.st57{stroke:#000000;stroke-width:0.2058;}
	.st58{stroke:#000000;stroke-width:0.2345;}
	.st59{stroke:#000000;stroke-width:1.8606;}
	.st60{stroke:#000000;stroke-width:1.8359;}
	.st61{stroke:#000000;stroke-width:1.1498;}
	.st62{stroke:#000000;stroke-width:0.236;}
	.st63{stroke:#000000;stroke-width:1.1399;}
	.st64{stroke:#000000;stroke-width:1.1562;}
</style>
<title>london skyline</title>
<g>
	<title>Layer 1</title>
	<g id="svg_2">
		<g id="layer17">
			<path id="path4607" class="st0" d="M2998.4,395.8l-0.4-56.5h-20.5v53.8h-11.2v-66.4H2947v49.6h-15.6v-39.1h-16.8v37h-15.5v-49.6
				c0,0-13.1-39.1-23.6,0c0,14.7,0,49.6,0,49.6h-3.1v-83.1l-20.9,13.6v74.1h-8.9v-73.7h-5v-12.6h-15.2V303h-7.5v74h-8.1v-58.3
				l-4.3-0.4l-4.7-36.7l-5,37h-6.2V377l-6.5-0.7v-77.5l-12.5-24.3l-11.4,0.2l-13.6,26.5v77.2h-14.7v-90.8h-22.1v90.5h-5.3v-82.8
				h-17.4v79.3h-2.5v-69.8l-16.3,4.9v65.3h-18.2v-80l-5.7-11.1l-6,11.6v78.5h-16.9v-82.8h-18.7v81.4h-3.7v-90.1h-30.1v88.4h-12.1
				v-49.6h-17.1v47.1h-2.5v-88h-20.2V369h-5.6v-81.4h-24.6v82.8h-11.5v-82h-7.3v-22.2h-13v22.2h-9.5v82.5h-12.3v-55.3h-20.9v55.6
				h-19.6v-75.8c0,0-11.4-15.8-25.9-1.7c0.2,7.7,0,78.3,0,78.3h-4.9v-66.4h-14.9l-15.1,63.3h-7.7v-27.3l-3.3-9.1l-2.9,9.1h-16.3
				l-1.9-8.3l-2.9,8.3v27.1h-10.9v-41.9h-13.6v41h-6.3v-71.1h-19.3v70.1h-13.6v-80.5h-21.5v17.3h-7.9v-19.8h-19.3v82.5h-5.3v-50.4
				h-12.7v48.9h-8.8V300h-14.5v63.7h-14.5v-78.5h-16.7l0.9,110.1L2998.4,395.8z"/>
			<path id="path4611" class="st1" d="M1712.3,406.8l0.4-56.5h20.5v53.8h11.2v-66.4h19.3v49.6h15.5v-39.1h16.8v37h15.5v-49.6
				c0,0,13.1-39.1,23.6,0c0,14.7,0,49.6,0,49.6h3.1v-83.1l20.9,13.6v74.1h8.9v-73.7h5v-12.6h15.2V314h7.5v74h8.1v-58.3l4.3-0.4
				l4.7-36.7l5,37h6.2V388l6.5-0.7v-77.5l12.5-24.3l11.4,0.2l13.6,26.5v77.2h14.7v-90.8h22.1v90.5h5.3v-82.8h17.4v79.3h2.5v-69.8
				l16.3,4.9v65.3h18.2v-80l5.7-11.1l6,11.6v78.5h16.9v-82.8h18.7v81.4h3.7v-90.1h30.1v88.4h12.1v-49.6h17.1v47.1h2.5v-88h20.2V380
				h5.6v-81.4h24.6v82.8h11.5v-82h7.3v-22.2h13v22.2h9.5v82.5h12.3v-55.3h20.9v55.6h19.6v-75.8c0,0,11.4-15.8,25.9-1.7
				c-0.2,7.7,0,78.3,0,78.3h4.8v-66.4h15l15.1,63.3h7.7v-27.3l3.3-9.1l2.9,9.1h16.3l1.9-8.3l2.9,8.3v27.1h10.9v-41.9h13.6v41h6.3
				v-71.1h19.3v70.1h13.6v-80.5h21.6v17.3h7.9v-19.8h19.3v82.5h5.3v-50.4h12.7v48.9h8.8V311h14.5v63.7h14.5v-78.5h16.7l-0.9,110.1
				L1712.3,406.8z"/>
			<path id="path6551" class="st0" d="M1273.8,412.7l0.4-56.5h20.5v53.8h11.2v-66.4h19.3v49.6h15.5v-39.1h16.8v37h15.5v-49.6
				c0,0,13.1-39.1,23.6,0c0,14.7,0,49.6,0,49.6h3.1V308l20.9,13.6v74.1h8.9v-73.7h5v-12.6h15.2v10.5h7.5v74h8.1v-58.3l4.4-0.3
				l4.7-36.7l5,37h6.2v58.3l6.5-0.7l6.7-87l8.6-14.9l8.6,0.2l9.9,14.7l3.7,89h14.7v-90.8h22.1v90.5h5.3v-82.8h17.4v79.3h2.5v-69.9
				l16.3,4.9v65.3h18.2v-80l5.7-11.1l6,11.6v78.5h16.9V308h18.7v81.4h3.7v-90.1h30.2v88.4h12.1V338h17.1v47.1h2.5v-88h20.2v88.7h5.6
				v-81.4h24.6v82.8h11.5v-82h7.3V283h13v22.2h9.5v82.5h12.3v-55.3h20.9V388h19.6v-75.8c0,0,11.4-15.8,25.9-1.7
				c-0.2,7.7,0,78.3,0,78.3h4.8v-66.4h15l15.1,63.3h7.8v-27.3l3.3-9.1l2.8,9.1h16.3l1.9-8.3l2.9,8.3v27.1h11v-41.9h13.6v41h6.2
				v-71.1h19.4v70.1h13.6V303h21.6v17.3h7.9v-19.8h19.4V383h5.3v-50.4h12.7v48.9h8.8v-64.7h14.5v63.7h14.5V302h16.7l-0.9,110.1
				L1273.8,412.7z"/>
			<path id="path6553" class="st0" d="M511.9,402.5l0.4-56.5h20.5v53.8H544v-66.4h19.3V383h15.5v-39.1h16.8v37h15.5v-49.6
				c0,0,13.1-39.1,23.6,0c0,14.7,0,49.6,0,49.6h3.1v-83.1l20.9,13.6v74.1h8.9v-73.7h5v-12.6H688v10.5h7.5v74h8.1v-58.3l4.4-0.4
				l4.7-36.7l5,37h6.2v58.3l6.5-0.7v-77.5l12.5-24.3l11.4,0.2l13.6,26.5v77.2h14.7v-90.8h22.1v90.5h5.3V302h17.4v79.3h2.5v-69.8
				l16.3,4.9v65.3h18.2v-80l5.7-11.1l6,11.6v78.5h16.9v-82.8h18.7v81.4h3.7V289h30.2v88.4h12.1v-49.6h17.1V375h2.5v-88h20.2v88.7
				h5.6v-81.4h24.6v82.8h11.5v-82h7.3v-22.2h13v22.2h9.5v82.5h12.3v-55.3h20.9v55.6h19.6V302c0,0,11.4-15.8,25.9-1.7
				c-0.2,7.7,0,78.3,0,78.3h4.8v-66.4h15l15.1,63.3h7.8v-27.3l3.3-9.1l2.9,9.1h16.3l1.9-8.3l2.9,8.3v27.1h11v-41.9h13.6v41h6.3
				v-71.1h19.4v70.1h13.6v-80.5h21.6v17.3h7.9v-19.8h19.4v82.5h5.3v-50.4h12.8v48.9h8.8v-64.7h14.5v63.7h14.5v-78.5h16.7l-0.9,110.1
				L511.9,402.5L511.9,402.5z"/>
			<path id="path6555" class="st2" d="M1433.3,402.9l-0.4-56.5h-20.5v53.8h-11.2v-66.4h-19.3v49.6h-15.5v-39.1h-16.8v37h-15.5v-49.6
				c0,0-13.1-39.1-23.6,0c0,14.7,0,49.6,0,49.6h-3.1v-83.1l-20.9,13.6v74.1h-8.9v-73.7h-5v-12.6h-15.2V310h-7.5v74h-8.1v-58.3
				l-4.4-0.4l-4.7-36.7l-5,37h-6.2v58.3l-6.5-0.7v-77.5l-12.5-28.5l-11.4,0.2l-13.6,30.7v77.2h-14.7v-90.8h-22.1v90.5h-5.3v-82.8
				h-17.4v79.3h-2.5v-69.8l-16.3,4.9V382h-18.2v-80l-5.7-11.1l-6,11.6v78.5h-16.9v-82.8h-18.7v81.4h-3.7v-90.1h-30.2v88.4h-12.1
				v-49.6h-17.1v47.1h-2.5v-88h-20.2V376h-5.6v-81.4h-24.6v82.8H906v-82h-7.3v-22.2h-13v22.2h-9.5v82.5h-12.3v-55.3h-20.9v55.6
				h-19.6v-75.8c0,0-11.4-15.8-25.9-1.7c0.2,7.7,0,78.3,0,78.3h-4.8v-66.4h-15l-15.1,63.3h-7.8v-27.3l-3.3-9.1l-2.9,9.1h-16.3
				l-1.9-8.3l-2.9,8.3v27.1h-11v-41.9h-13.6v41h-6.3v-71.1h-19.4v70.1h-13.6v-80.5h-21.6v17.3h-7.9v-19.8H615v82.5h-5.3v-50.4H597
				v48.9h-8.8V307h-14.5v63.7h-14.5v-78.5h-16.7l0.9,110.1L1433.3,402.9z"/>
			<path id="path6557" class="st1" d="M207.3,413.7l0.4-56.5h20.5V411h11.2v-66.4h19.3v49.6h15.5v-39.1h16.8v37h15.5v-49.6
				c0,0,13.1-39.1,23.6,0c0,14.7,0,49.6,0,49.6h3.1V309l20.9,13.6v74.1h8.9V323h5v-12.6h15.2v10.5h7.5v74h8.1v-58.3l4.4-0.4
				l4.7-36.7l5,37h6.2v58.3l6.5-0.7v-77.5l12.5-24.3l11.4,0.2l13.6,26.5v77.2H478v-90.8h22.1V396h5.3v-82.8h17.4v79.3h2.5v-69.8
				l16.3,4.9v65.3h18.2v-80l5.7-11.1l6,11.6v78.5h16.9V309h18.7v81.4h3.7v-90.1H641v88.4h12.1V339h17.1v47.1h2.5v-88h20.2v88.7h5.6
				v-81.4h24.6v82.8h11.5v-82h7.3v-22.2h13v22.2h9.5v82.5h12.3v-55.3h20.9V389h19.6v-75.8c0,0,11.4-15.8,25.9-1.7
				c-0.2,7.7,0,78.3,0,78.3h4.8v-66.4h15l15.1,63.3h7.8v-27.3l3.3-9.1l2.9,9.1h16.3l1.9-8.3l2.9,8.3v27.1h11v-41.9h13.6v41h6.3
				v-71.1h19.4v70.1h13.6v-80.5h21.6v17.3h7.9v-19.8h19.3v82.5h5.3v-50.4h12.8v48.9h8.8v-64.7h14.5v63.7h14.5v-78.5h16.7l-0.9,110.1
				L207.3,413.7L207.3,413.7L207.3,413.7z"/>
			<path id="path6559" class="st3" d="M0.9,300.1h17.7v81.4h3.7v-90.1h30.2v88.4h12.1v-49.6h17.1v47.1h2.5v-88h20.2V378h5.6v-81.4
				h24.6v82.8h11.5v-82h7.3v-22.2h13v22.2h9.5v82.5h12.3v-55.3h20.9v55.6h19.6v-75.8c0,0,11.4-15.8,25.9-1.7c-0.2,7.7,0,78.3,0,78.3
				h4.8v-66.4h15l15.1,63.3h7.8v-27.3l3.3-9.1l2.9,9.1h16.3l1.9-8.3l2.9,8.3v27.1h11v-41.9H349v41h6.3v-71.1h19.4v70.1h13.6v-80.5
				h21.6v17.3h7.9v-19.8h19.4v82.5h5.3v-50.4h12.8v48.9h8.8V309h14.5v63.7H493v-78.5h16.7l-0.9,110.1L0.9,404.6"/>
			<path id="path6571" class="st1" d="M556.1,300.2h-17.7v81.4h-3.7v-90.1h-30.2v88.4h-12.1v-49.6h-17.1v47.1h-2.5v-88h-20.2v88.7
				H447v-81.4h-24.6v82.8H411v-82h-7.3v-22.2h-13v22.2h-9.5V380h-12.3v-55.3H348v55.6h-19.6v-75.8c0,0-11.4-15.8-25.9-1.7
				c0.2,7.7,0,78.3,0,78.3h-4.8v-66.4h-15l-15.1,63.3h-7.8v-27.3l-3.3-9.1l-2.9,9.1h-16.3l-1.9-8.3l-2.9,8.3v27.1h-11v-41.9H208v41
				h-6.3v-71.1h-19.4v70.1h-13.6v-80.5h-21.6v17.3h-7.9v-19.8H120v82.5h-5.3v-50.4h-12.8v48.9h-8.8v-64.7H78.6v63.7H64.1v-78.5H47.4
				l0.9,110.1l507.8,0.3"/>
			<path id="path2709" class="st4" d="M2375.1,391.6h5.1v-90.8h22.1v90.5h5.3v-82.8h17.4v79.3h2.5V318l16.3,4.9v65.3h18.2v-80
				l5.7-11.1l6,11.6v78.5h16.9v-82.8h18.7v81.4h3.7v-90.1h30.1V384h12.1v-49.6h17.1v47.1h2.5v-88h20.2v88.7h5.6v-81.4h24.6v82.8
				h11.5v-82h7.3v-22.2h13v22.2h9.5v82.5h12.3v-55.3h20.9v55.6h19.6v-75.8c0,0,11.4-15.8,25.9-1.7c-0.2,7.7,0,78.3,0,78.3h4.8v-66.4
				h15l15.1,63.3h7.7v-27.3l3.3-9.1l2.9,9.1h16.3l1.9-8.3l2.9,8.3v27.1h10.9v-41.9h13.6v41h6.3v-71.1h19.3v70.1h13.6v-80.5h21.6
				v17.3h7.9v-19.8h19.3v82.5h5.3V329h12.7v48.9h8.8v-64.7h14.5v63.7h14.5v-78.5h16.7l-0.9,110.1l-624.3,0.4"/>
		</g>
		<g id="layer14">
			<path id="path4146" class="st4" d="M996,377V243.4c0-6.3,7.6-21.3,17.2-21.6c10-0.3,17.9,15.7,18.1,21.6c0,0.6,0,132.8,0,132.8
				L996,377z"/>
			<path id="path4153" class="st0" d="M1318.6,166.2l10.4,36.3v178.9l-45.3,0.5l0,0V200.5l10-33.3l12.7-23.1L1318.6,166.2z"/>
			<path id="path4155" class="st0" d="M1344.9,353.3V195.2h9.4v10.2h22.3v-10.2h8.8v158.1L1344.9,353.3L1344.9,353.3z"/>
			<path id="path4602" class="st5" d="M2861.2,376.8l0.3-180l-36,25.4v154.6H2861.2z"/>
			<path id="path4604" class="st6" d="M2908.3,254.4l5.9,20.6v101.5l-25.7,0.3l0,0V273.8l5.7-18.9l7.2-13.1L2908.3,254.4
				L2908.3,254.4z"/>
		</g>
		<g id="layer12">
			<rect id="rect2693" x="0" y="376.3" class="st7" width="2999.5" height="70.3"/>
			<rect id="rect3848" x="0" y="436.1" width="2999.4" height="36.9"/>
		</g>
		<g id="layer13">
			<path id="tree03" class="st8" d="M199.5,376.3l2.9-0.2l9.4,1.5c1.6,0.5,2.5,1.7,4.1,2.3l3.7,0.5c1.2,0.4,4.7,3,5.6,4
				c1,1.1,2.9,4.8,3.1,6.3c0,1.5-0.9,3.2,0,4.3c1,1.1,2.7,0.4,4.3,1.4c1.5,0.9,2,2.5,3.1,3.9c1.6,2.2,4.4,4.1,4.2,7.4
				c-0.2,4.2-7.4,2.3-8.8,6.5c-1.2,3.5,6.7,3,5.4,7.3c-1,3.3-5.3,2.6-7.5,3.6l-5.3,3.4c-1.3,0.6-2.6,1.8-4,0.9
				c-2.4-1.6-1.9-5-2.4-6.5c-0.5-1.3-1.5-2.3-2.6-3c-0.8-0.5-1.9-1.1-2.8-0.6c-1.6,0.8-3.8,4.2-4,6.2l-2.1,11.8
				c-0.3,1.6,0.3,3.6,0.2,5.4c0,1,0.1,2.4-0.4,3.2c-1.5,0.5-2.3,0.8-4-0.5c-0.9-2,0.2-3,0.4-5.3c0.1-2.8,0.4-7.3,0.3-10.3l-0.3-3.2
				l-0.4-2.3c-0.1-0.5-0.3-0.9-0.5-1.4c-2.5-4.4-5.8,1.8-7.4,2.7c-0.8,0.5-1.6,0.5-2.4,0.4c-1.2-0.1-3-0.5-4.1-1.2
				c-1.1-0.7-2.1-2.2-3.3-2.5c-1.8-0.4-7.1,4.5-7.9-0.4c-0.1-0.5,0-0.9,0-1.4c0.1-2.3,0.4-4.8-0.5-6.9c-1.2-2.8-1.8-1-4-6.9
				c-0.3-0.8-0.8-1.9-0.9-2.8c-0.3-3.5,4.1-5.2,4.9-7.4c0.6-1.3,0-2.3,0-3.6c-0.2-1.4,0.4-4.2,0.9-5.5c0.6-1.5,1.7-2,2.7-3.3
				c0.9-1.3,1.4-3,2.8-3.7c1.3-0.6,2.7,0,4.5-1.2c1.8-1.2,2.5-2.8,4.9-4.3C194.3,374.2,197,376.1,199.5,376.3L199.5,376.3z"/>
			<path id="tree04" class="st9" d="M1007.1,358.4c2.4,0.3,3.7-1.2,6,0.9c1.1,1,2.7,3.2,3.2,4.6c0.6,1.7,0.8,4.4,2.3,5.5
				c2.2,1.4,3.3-3.3,6-2.4c2,0.7,2,3.5,1.9,5.4c-0.1,6.1-3.7,11-3.3,15c0.4,3.5,4.8,4.1,4.6,8.6c-0.1,2.8-2.5,3-5.1,5.9
				c-3,3.4-4.1,6.5-5.7,10.7c-0.5,1.3-1.1,4.2-1.8,5c-1.5,1.6-3.5,0-5.4,0.7c-1.4,0.6-2.1,1.9-3.4,2.8c-2.5,1.7-7.9,2.2-9.4,5.4
				c-0.5,1.3-0.1,6.7,0,8.5c-0.1,1.4,0,4-0.7,5.1c-0.3,0.5-0.7,0.9-1.3,0.9c-2.2,0-1.9-3.8-1.9-5.4v-7.5c-0.1-5.9-3-5.3-6.7-7.1
				l-4.3-2.5c-1.6-0.9-3.2-2.6-4.8-3.1c-1.9-0.6-5.1,0.3-6.2-1.2c-1.3-1.8,0.6-6.6-0.3-9.2c-0.8-2.3-2.8-3.7-3.9-5.9
				c-0.6-1.2-1.9-6.2-1.9-7.5l0.4-4.3c-0.2-2.1-1.8-3.4-1.7-5.4c0-2.3,1.9-3.1,3.5-6.4c1.3-2.9,2.5-7.2,4.5-9.5
				c3.1-3.5,5.8-3.3,9-4.8c1.5-0.7,4-3.4,7.6-4.9c1.5-0.6,3.2-0.6,4.8-0.9C998.3,354.9,1004.5,358.2,1007.1,358.4z"/>
			<path id="path6593" class="st10" d="M2826.7,381.2l2.2-0.2l7.4,1.2c1.3,0.4,1.9,1.3,3.2,1.8l2.9,0.4c1,0.3,3.7,2.3,4.4,3.2
				c0.8,0.9,2.2,3.8,2.4,5c0,1.2-0.7,2.5,0,3.4c0.8,0.9,2.1,0.3,3.4,1.1c1.2,0.7,1.6,2,2.4,3.1c1.3,1.7,3.4,3.2,3.3,5.8
				c-0.2,3.3-5.8,1.8-6.9,5.1c-0.9,2.8,5.2,2.4,4.2,5.7c-0.7,2.6-4.2,2.1-5.9,2.8l-4.2,2.7c-1,0.5-2.1,1.4-3.1,0.7
				c-1.9-1.3-1.5-3.9-1.9-5.1c-0.3-1-1.2-1.8-2-2.3c-0.6-0.4-1.5-0.8-2.2-0.5c-1.3,0.6-3,3.3-3.1,4.9l-1.6,9.2
				c-0.2,1.3,0.2,2.8,0.2,4.2c0,0.8,0.1,1.9-0.3,2.5c-1.2,0.4-1.8,0.6-3.1-0.4c-0.7-1.6,0.1-2.3,0.3-4.2c0.1-2.2,0.3-5.7,0.2-8.1
				l-0.3-2.5l-0.3-1.8c-0.1-0.4-0.2-0.7-0.4-1.1c-1.9-3.4-4.6,1.4-5.8,2.1c-0.6,0.4-1.2,0.4-1.9,0.3c-1-0.1-2.4-0.4-3.2-0.9
				c-0.8-0.6-1.6-1.7-2.5-2c-1.5-0.3-5.6,3.5-6.2-0.3c-0.1-0.4,0-0.7,0-1.1c0.1-1.8,0.4-3.7-0.4-5.4c-1-2.2-1.4-0.7-3.1-5.4
				c-0.2-0.7-0.6-1.5-0.7-2.2c-0.2-2.7,3.2-4.1,3.8-5.8c0.5-1,0.1-1.8,0-2.8c-0.1-1.1,0.3-3.3,0.8-4.3c0.5-1.2,1.4-1.6,2.1-2.6
				c0.7-1,1-2.4,2.2-2.9c1-0.5,2.1,0,3.5-0.9c1.4-1,1.9-2.2,3.8-3.3C2822.7,379.5,2824.8,381,2826.7,381.2L2826.7,381.2z"/>
		</g>
		<g id="layer11">
			<g id="g3228">
			</g>
			<g id="g3909">
				<path id="path3094" class="st11" d="M2795.7,439.8l-0.1-47.6c0,0,3.6-0.5,5.6-3.1c0-0.4,0-126.1,0-126.1h-38.4
					c0,0,0,125.7,0,126.1c2,2.5,5.5,3.1,5.5,3.1v46.9C2774.7,445.3,2789.4,443.8,2795.7,439.8z"/>
				<path id="path3096" class="st11" d="M2774.4,263.2l-0.1-66.1h15.3l0,66.1L2774.4,263.2L2774.4,263.2z"/>
				<path id="path3098" class="st11" d="M2764.4,251.7v4.7h35.2v-4.7L2764.4,251.7z"/>
				<path id="path3100" class="st11" d="M2764.6,238.4v4.7h35.2v-4.7L2764.6,238.4z"/>
				<path id="path3102" class="st11" d="M2764.3,225.1v4.7h35.2v-4.7L2764.3,225.1z"/>
				<path id="path3104" class="st11" d="M2764.7,211.8v4.7h10h25.3v-4.7L2764.7,211.8z"/>
				<path id="path3106" class="st11" d="M2764.4,198.2v4.7h35.2v-4.7L2764.4,198.2z"/>
				<path id="path3108" class="st11" d="M2789.8,197c0,0,9.6-0.4,11.4-1.8c-0.1-3.3-0.1-3.4-0.1-3.4s-0.6-0.6-2.3-1
					c-0.1,0.1-0.1-0.8-0.1-0.8h1.6l0.7-0.8v-13.6h1.1c0,0,0.6-0.4,0.8-1c0-0.7,0-17.6,0-17.6s-0.8-1.1-1.9-1.5c0.1-0.1,0-12,0-12
					c-1.2-2.2-6.7-3-10.3-3.6l0-0.9c0,0,3.2-0.2,3.7-1c0.1,0,1.2-1.1,1.2-1.6c0-0.1,0-8.3,0-8.3c-0.4-0.8-3.7-2.3-6.7-2.5l-13.9,0
					c-3,0.2-6.3,1.7-6.7,2.5c0,0-0.1,8.2,0,8.2c0.1,0.5,1.1,1.6,1.2,1.6c0.6,0.8,3.7,1,3.7,1l0,0.9c-3.7,0.5-9.1,1.4-10.3,3.6
					c0,0-0.1,11.9,0,12c-1.1,0.4-1.9,1.5-1.9,1.5s0,16.9,0,17.6c0.2,0.7,0.9,1,0.9,1h1v13.6l0.7,0.8h1.6c0,0,0,0.9-0.1,0.8
					c-1.7,0.3-2.3,1-2.3,1s0,0.1-0.1,3.4c1.8,1.4,11.4,1.8,11.4,1.8L2789.8,197L2789.8,197z"/>
				<path id="path3110" class="st11" d="M2765.5,251.6v-0.9h-2.1l-0.4,1.4l-2.4,0l-0.5-2.5V247l0.4-1.7l2.5-0.1l0.6,0.9v3.8l2.8,0.1
					l0,1.5L2765.5,251.6z"/>
				<path id="path3112" class="st11" d="M2764.8,238.2v-0.9h-2.1l-0.4,1.4l-2.4,0l-0.5-2.5v-2.6l0.5-1.7l2.5-0.1l0.6,0.9v3.8
					l2.8,0.1l0,1.5L2764.8,238.2z"/>
				<path id="path3114" class="st11" d="M2765.3,225.1v-0.9h-2.1l-0.4,1.4l-2.4,0l-0.5-2.5v-2.6l0.4-1.7l2.5-0.1l0.6,0.9v3.8
					l2.7,0.1l0,1.5L2765.3,225.1z"/>
				<path id="path3116" class="st11" d="M2768.8,211.7v-0.9h-2.1l-0.4,1.4l-2.4,0l-0.5-2.5V207l0.5-1.7l2.5-0.1l0.6,0.9v3.8l2.7,0.1
					l0.1,1.5L2768.8,211.7z"/>
				<path id="path3118" class="st11" d="M2797.2,231.3h-2.9c0,0-3.5,2.8-0.1,6.8c0.1-0.1,3.8,0.2,3.8,0.2S2801.2,234.1,2797.2,231.3
					z"/>
				<path id="path3120" class="st11" d="M2797.4,245.2h-2.9c0,0-3.5,2.8-0.1,6.8c0.1-0.1,3.8,0.2,3.8,0.2S2801.4,247.9,2797.4,245.2
					L2797.4,245.2z"/>
				<path id="path3122" class="st12" d="M2797.4,218.7h-2.3c0,0-2.8,2.9-0.1,6.8c0.1-0.1,3.1,0.2,3.1,0.2S2800.6,221.4,2797.4,218.7
					z"/>
				<path id="path3124" class="st13" d="M2793.9,207.5h-2.1c0,0-2.5,2.9-0.1,6.8c0.1-0.1,2.7,0.2,2.7,0.2S2796.8,210.3,2793.9,207.5
					L2793.9,207.5z"/>
				<path id="path3126" class="st14" d="M2770.9,219.8h-2.6c0,0-3.1,2.9-0.1,6.8c0.1-0.1,3.3,0.2,3.3,0.2S2774.4,222.5,2770.9,219.8
					L2770.9,219.8z"/>
				<path id="path3128" class="st15" d="M2771.7,232.6h-2.9c0,0-3.5,3.1-0.1,7.3c0.1-0.1,3.8,0.2,3.8,0.2S2775.7,235.6,2771.7,232.6
					z"/>
				<path id="path3130" class="st16" d="M2771.1,245.6h-2.7c0,0-3.3,2.9-0.1,6.8c0.1-0.1,3.6,0.2,3.6,0.2S2775,248.4,2771.1,245.6z"
					/>
				<path id="path3132" class="st17" d="M2776.5,92l11.1,0.2l-0.4,4.6h-10.8L2776.5,92L2776.5,92L2776.5,92z"/>
				<path id="path3134" class="st18" d="M2786.7,101.5h-9.2v4.6h9.1L2786.7,101.5L2786.7,101.5z"/>
				<path id="path3136" class="st19" d="M2778.1,111.3h7.8v5h-7.7L2778.1,111.3z"/>
				<path id="path3138" class="st20" d="M2779.2,120.4h5.6v2.8h-5.6L2779.2,120.4L2779.2,120.4z"/>
				<path id="path3140" class="st21" d="M2778.9,125.8l-2.6-33.6l11.4,0.2l-2.7,33.5L2778.9,125.8z"/>
				<path id="path3142" class="st22" d="M2782.2,91.8V68.7"/>
			</g>
		</g>
		<g id="layer10">
			<path id="path3090" class="st23" d="M2683.4,438.1c-0.5,2-2.7,4.8-2.9,5c-15.1,13.5-55,15.8-76.7-1.7c-0.9-0.7-4.7-6.1-4.7-6.3
				c-3.9-37.5-27.4-266.8,38-355.6c-0.5-0.5,7-0.5,7-0.5C2713,157,2686.7,437.7,2683.4,438.1L2683.4,438.1z"/>
		</g>
		<g id="layer9">
			<path id="path3293" class="st24" d="M2243.1,438.2v-7.8l0.8-0.9l0-25.3c0,0-1.1-1.6-0.9-1.8c-0.1-0.3-0.1-1.9-0.1-1.9h1.1v-23.6
				l-1-0.8v-0.7l1,0l-1-1.4v-1.3l-1.3-0.9v-1.1l1.3-1v-1.5l0.9-0.7V362h-0.8l-0.4-0.9v-0.8l0.5-0.5h4v4.1h0.8v0.7h1.6v-0.7h2.3v0.9
				h1.3v0.8h1.1v0.5l0.8,0.2v-3l0.6-1.3l0.5-0.6h5.4v0.7h6.4v-0.9h6v0.9h15.5v-1h5.9v1h15.7v-1.2h5.8v1.2h15.1v-1.1h6.9v1h5.5v-0.9
				h-0.9v-1.7h-0.6v-1.4h1.7v-10.9h-1.1v-3.1h0.5v-21.6v-4.4l-1.3-1.5V315l1.8-0.8v-3.4l-0.5-0.1v-0.9l2.1-1.5l3.1-1.1h3.4v-9.9
				l-1.3-1.1v-1.8h1.3v-0.6h0.6l-0.1-0.5h-0.4l-0.5-0.6v-0.7l1.5-1V289h0.7c1-10,6.4-29.4,22.3-35.7v-1.4h0.7v-0.9
				c0,0-1.2,0.1-1.4-0.8c0-0.2-0.1-1,0.8-1.4l0.5,0v-2.9h0.4v-1.6h0.5v1.4h1v-2.5h-0.5v-1.5h1.1v-11l-1.2-1.1v-0.9h1.3v-3.4l1.2,1.4
				v1.7h1v-6.2h-1.3v-1.1h0.7v-3.4c0,0,1.6-2.8,2.6-2.8v-1l-0.8-0.5v-0.5h0.9v-2.6h0.7c0,0-0.6-0.5-0.7-0.9l0-1c0,0,0.3-0.5,0.5-0.5
				c0.3,0,0.4,0,0.4,0v-0.6c-2.8-1.5-0.6-4.4,0-4.1l0.1-5.4l0.5-2.9l0.4,2.9l0.1,5.4c0.6-0.3,2.8,2.6,0,4.1v0.6c0,0,0.1,0,0.4,0
				c0.3,0,0.5,0.5,0.5,0.5l0,1c-0.1,0.4-0.7,0.9-0.7,0.9h0.7v2.6h0.9v0.5l-0.8,0.5v1c1,0,2.6,2.8,2.6,2.8v3.4h0.7v1.1h-1.3v6.2h1
				v-1.7l1.2-1.4v3.4h1.3v0.9l-1.2,1.1v11h1.1v1.5h-0.5v2.5h1v-1.4h0.5v1.6h0.4v2.9l0.5,0c0.8,0.4,0.7,1.1,0.7,1.4
				c-0.2,0.9-1.4,0.8-1.4,0.8v0.9h0.7v1.4c15.9,6.3,21.2,25.7,22.3,35.7h0.6v2.2l1.5,1v0.7l-0.5,0.6h-0.4l-0.1,0.5h0.6v0.6h1.3v1.8
				l-1.3,1.1v9.9h3.4l3.1,1.1l2.2,1.5v0.9l-0.5,0.1v3.4l1.8,0.8v1.3l-1.3,1.5v4.4v21.6h0.5v3.1h-1.1v10.9h1.7v1.4h-0.6v1.7h-0.8v0.7
				h7.6v-1.3h6.9v1.3h15.3v-1.1h5.9v1.2h15.9v-1.2h6v1.1h14v-1.1h7.6v1h30.4v-6.2l-0.9-0.8l0-4l0.9-0.5v-1.5h-0.9v-5.2h2.7v-2l1.3,0
				l-0.8-1.3l-0.4-0.6l-0.1-1.3l1,0v-1.6h0.4v-13.9l-0.8-0.5l-1.1-0.6v-2h1.8v-3h0.5v-2.1h0.9h0.5v-2.6h-0.6v-0.9h0.6v-1.1h0.8v1.1
				h0.5v0.9h-0.5v1.5h0.7l0.8-1.5v-4.6h-0.6v-1.5h0.9v-1.5h0.7v-1.1h-0.7V302h0.6v-1.1h0.5l-0.1-0.4h0.6l-0.1-2l0.9-1.3v-2.5
				l1.6-2.8h0.3c0,0,0.1-1.5,0.8-1.7c0-0.1,0.1-1.1,0.1-1.1c-0.6-0.1-0.9-1.3-0.1-1.7c0,0,0-1,0-1.1c-1-0.3-1-2.2,0.4-2.2
				c1.4,0.1,1.4,1.9,0.4,2.2c0,0,0,1.1,0,1c0.9,0.4,0.6,1.7,0,1.7c0,0,0.1,1.1,0.1,1.1c0.7,0.1,0.8,1.7,0.8,1.7h0.3l1.6,2.8v2.5
				l0.8,1.3l0,2h0.6l-0.1,0.4h0.4v1.1h0.6v1.2h-0.7v1.1h0.7v1.5h0.9v1.5h-0.6v4.6l0.8,1.4h0.7v-1.5h-0.5v-0.9h0.5v-1.1h0.9v1.1h0.5
				v0.9h-0.5v2.6h0.4h0.9v2.1h0.5v3h1.8v2l-1.1,0.6l-0.7,0.5v13.9h0.4v1.6l1,0l-0.1,1.3l-0.4,0.6l-0.8,1.3l1.3,0v2.1h2.7v5.2h-0.9
				v1.5l0.9,0.5l0,4l-0.9,0.8v5h3.7v-1.2c0,0-0.7-0.6-0.6-1.1c0,0.1,0-2,0-2s0.1-0.7,0.5-0.8c-0.1,0,0-4.3,0-4.3l0.4-0.5
				c0,0-0.2-0.9,0.5-0.9c0,0,0.7,0,0.5,1c0,0,0.7,0.5,0.7,0.5v1.2h-0.3v0.5h0.5l0,4h-0.4v3.7v6.3l0.9,0.6v3.4h-0.5v2h-0.5v18.7h1.4
				v3.1h1v2.1h-0.5v0.9h-1.4v3.1h0.5v2.2h-0.5v1.9h-0.5v23.9h0.9v1h0.5v0.6h0.5v8.1L2243.1,438.2L2243.1,438.2z"/>
		</g>
		<g id="layer8">
			<g id="g3281">
				<g id="g3293">
					<path id="path3295" class="st25" d="M2114.9,271.2c0,1.2-1,2.2-2.3,2.2s-2.3-1-2.3-2.2c0-1.2,1-2.2,2.3-2.2
						S2114.9,270,2114.9,271.2z"/>
					<path id="path3297" class="st26" d="M2112.4,269.6l0.1-6.9l0.2,6.9L2112.4,269.6L2112.4,269.6z"/>
					<path id="path3299" class="st25" d="M2113.4,272.7c-0.2,1.2,0.4,8.4,0.5,8.4c7.9,2.3,8.9,10,8.9,10l2.1,0v4.4h-2.2l-0.1,33.4
						l-19.9,0l0-33.1h-2.1v-4.7l2,0c0,0,0.5-8.2,8.4-9.7c0.1,0,1.1-7.3,0.8-8.5L2113.4,272.7L2113.4,272.7L2113.4,272.7z"/>
				</g>
				<g id="g3301">
					<path id="path3303" class="st27" d="M2082.4,259.1c0,1.2-1,2.2-2.3,2.2s-2.3-1-2.3-2.2c0-1.2,1-2.2,2.3-2.2
						S2082.4,257.9,2082.4,259.1z"/>
					<path id="path3305" class="st28" d="M2079.8,257.5l0.2-6.9l0.2,6.9L2079.8,257.5L2079.8,257.5z"/>
					<path id="path3307" class="st29" d="M2080.9,260.6c-0.2,1.2,0.5,8.4,0.5,8.4c7.9,2.3,8.9,10,8.9,10l2.1,0v4.4h-2.2l-0.1,33.4
						l-19.9,0l0-33.1h-2.1V279l2,0c0,0,0.5-8.2,8.4-9.7c0.1,0,1-7.3,0.8-8.5L2080.9,260.6L2080.9,260.6z"/>
				</g>
				<path id="path3310" class="st27" d="M2203.2,258.9c0,1.2-1,2.2-2.3,2.2c-1.3,0-2.3-1-2.3-2.2c0-1.2,1-2.2,2.3-2.2
					C2202.2,256.7,2203.2,257.7,2203.2,258.9z"/>
				<path id="path3312" class="st30" d="M2200.7,257.3l0.1-6.9l0.2,6.9L2200.7,257.3L2200.7,257.3z"/>
				<g id="g3314">
					<path id="path3316" class="st25" d="M2174.7,270.4c0,1.1-1,2-2.2,2c-1.2,0-2.2-0.9-2.2-2c0-1.1,1-2,2.2-2
						C2173.7,268.4,2174.7,269.3,2174.7,270.4z"/>
					<path id="path3318" class="st31" d="M2172.2,269l0.1-6.3l0.2,6.3L2172.2,269L2172.2,269z"/>
					<path id="path3321" class="st25" d="M2173.2,271.8c-0.2,1.1,0.4,7.7,0.5,7.7c7.6,2.1,8.6,9.2,8.6,9.2l2,0v4h-2.2l-0.1,30.6
						l-19.2,0l0.1-30.4h-2.1v-4.3l1.9,0c0,0,0.5-7.6,8.1-8.9c0.1,0,1-6.7,0.8-7.8L2173.2,271.8L2173.2,271.8z"/>
				</g>
				<path id="path3323" class="st32" d="M2201.8,260.8c-0.3,1.2,0.4,8.4,0.5,8.4c7.9,2.3,8.9,10,8.9,10l2.1,0v4.4h-2.2L2211,317
					l-19.9,0l0-33.1h-2.1v-4.7l2,0c0,0,0.5-8.2,8.4-9.7c0.1,0,1.1-7.3,0.8-8.5L2201.8,260.8L2201.8,260.8z"/>
				<path id="path3325" class="st33" d="M2231.1,318c0,0,0-4.8,0-4.8c-0.6-0.4-3.7-0.7-3.7-0.7v6l-3.3-0.5l0-5.7
					c-2-0.4-2.9-0.5-4.8-0.6l0,5.4l-3.5-0.5v-5.1c-2.6-0.1-4.5-0.1-4.5-0.1l0.1,5.1l-5.2,0h-4.6v-5.4h-7.1l0.1,5.5l-4.5,0v-5.4l-7,0
					l0,5.5l-4.5,0v-5.4h-7.1l0,5.5l-4.5,0v-5.4h-7.1l0.1,5.5l-4.5,0v-5.4h-7.1l0.1,5.5l-4.5,0v-5.4h-7.1l0,5.5l-4.5,0v-5.4h-7.1
					l0,5.5l-4.5,0v-5.4h-7.1l0.1,5.5l-4.5,0v-5.4h-7.1v5.4h-4.5v-5.2h-27.1l0.2,89.2c-0.2,0.1,131.8-0.5,132-0.5
					c0,0,27.1-0.4,28.6-4.1C2231.1,394.7,2231.1,318.1,2231.1,318L2231.1,318z"/>
				<path id="path3056" class="st34" d="M2061.5,418l0-9.6c0,0-1.7-0.3-1.6-1c0.1-0.7,1.1-0.2,1.3-1.1c0.9-2.8-0.4-4.9-2.9-4.9
					c-2.7,0-3.9,2.1-3,4.9c0.3,0.9,1.2,0.4,1.3,1.1c0.1,0.7-1.6,1-1.6,1l-0.1,9.1v0.5L2061.5,418L2061.5,418z"/>
			</g>
		</g>
		<g id="layer6">
			<path id="path2235" class="st35" d="M1549.7,394.4c-6.6,7.6-61.2,13.1-74.3,1c0.1,0-2.6-8.3-2.6-8.3s-3.9-0.7-4.1-1.7
				c0,0.2-0.6-6-0.6-6s-4.9-0.3-5.5-1.1c0,0-0.6-10.7-0.6-10.7s-3.4-0.2-3.9-1c0,0.1,0-6.3,0-6.3c0.1,0-2.7,0.3-3.6-0.8
				c-0.1,0-0.2-8.8-0.2-8.8s-1.9,0.2-2.7-0.6c0-0.4-0.1-8.6-0.1-8.6c-2.4-0.2-2-1.3-2-1.3l0.2-7.8c-0.7-0.1-1.8-1.1-1.7-1.5l0.4-7.9
				c-1.1-0.6-1.3-1.9-1.3-2.2l0.7-7.2c0,0-0.1,0.1-0.7-0.4c-0.3-0.3,0.5-5.9,0.9-6.2c1.2-1.6,0.1,0.3-0.6-2c-0.1-0.5,1-7.8,2.3-8.5
				c0.6-0.2,9.8-2.1,14.7-2.2c-0.1,0.1,11.6,0,11.6,0s19.6,2.4,28.1,7.6c-0.6-0.5,14,8.6,16.2,10.3c-0.1-0.1,17.3,15.2,22.6,27
				c-0.2-0.4,6.5,13.3,7.7,18.7c-0.1-0.3,2.2,6.5,3.3,12.7c0.7,3.9,1,6.2,1.3,8.6c0.2,0.2-4.6,3.2-5.2,2.8l-0.1,8.4v0.8
				L1549.7,394.4z"/>
		</g>
		<g id="layer5">
			<g id="g3843">
				<path id="path3146" class="st36" d="M1385.9,421.4c0,0-50.8,2-53.1,0.3c-0.3,0.2-4.7,4.9-6.5,9c0.1-0.2-2.3-0.3-2.3-0.3
					s1.8-5.9,1.4-7.6c-0.1,0.2-8.7-2-11.2-2.3c0.2,0.1-2.4,0.4-3.3,8.8c0-0.3-2.2-0.1-2.2-0.1s0-8.4-2.5-9.6
					c-0.1-0.1-30.8-5.1-41.3-7.7c0,0-7.2,3.4-9.5,6.6c-1.1-0.5-1.1-0.5-1.1-0.5s6.1-7.5,5.8-9.9c-0.1-0.1,0.2-2.3-3.4-1.8
					c-0.1,0-8.7,6.6-9.8,8.3l-0.9-0.8c0,0,5.3-10.2,3.2-12.5c-0.1-0.1-5-6.9-8.1-6.4c0.2-0.2-13,4.6-13,4.6l-0.1-0.9
					c0,0,6.1-4.1,5.9-4.4c0,0-6.5,1.6-6.6,2.2c-0.1-0.5-0.1-0.7-0.1-0.7l10.7-10.2c1-1.1,14.7-12,34.8-22.4c2-1,28.2-17.7,79-17.9
					c-0.3,0,56.7-3.6,105.8,40.4c0,0,3.8,4.7,7,7.7c0.1,0.5-0.5,0.2-0.5,0.2s-8.6-4.8-10.2-1.5c-0.1,0-2,5.2-0.2,9.1
					c1.8,3.9,5.5,9.7,5.5,9.7l-0.5,0.3c0,0-7.8-9.7-11.4-8.6c0.3,0.2-3.9,0.7,5.7,11.4c0.1,0-0.6,0.7-0.6,0.7s-8.7-7.8-12.1-7.3
					c-2.8,0.8-30.2,9-30.2,9s-2.4,5.8-0.9,10c-0.3,0.1-1.4,0.5-1.4,0.5s-3.6-8.5-4.8-8.5c-2.6,0.3-10.2,2.4-10.2,2.4
					s1.3,6.1,2.4,7.7c-1.6,0.1-1.6,0.2-1.6,0.2S1386.9,421.4,1385.9,421.4L1385.9,421.4z"/>
				<path id="path3148" class="st36" d="M1273.4,363.3l-10.9-44.9l-0.4-8.8l3.9,8.5l11.7,42.5L1273.4,363.3L1273.4,363.3z"/>
				<path id="path3150" class="st36" d="M1268.2,325l-0.8-12l3.9,9.6l8.9,38.1l-2.8,1.1L1268.2,325z"/>
				<path id="path3152" class="st36" d="M1286.7,356.1l-7.2-39.6l-0.7-9.1l3,8.6l8.9,38.8L1286.7,356.1z"/>
				<path id="path3154" class="st36" d="M1304.1,351.7l-3.4-25.3l0.1-11.5l3.4,11.1l3.5,25.6L1304.1,351.7L1304.1,351.7z"/>
				<path id="path3156" class="st36" d="M1311.5,349.4l-3.1-32.9l0.3-9.3l2.5,10.4l3.5,31.7L1311.5,349.4L1311.5,349.4z"/>
				<path id="path3158" class="st36" d="M1342.6,346.7l0.3-31.5l1-9.1l1.6,8.8l0.4,31.7L1342.6,346.7L1342.6,346.7z"/>
				<path id="path3160" class="st36" d="M1352.5,345.5l0.5-17.3l2.3-12.7l1.9,13.4l-0.4,16.9L1352.5,345.5z"/>
				<path id="path3162" class="st36" d="M1374.5,347l3-30.3l2.2-9.4l0.6,10.8l-2.9,29.6L1374.5,347z"/>
				<path id="path3164" class="st36" d="M1397.7,352.1l5-25.8l3.8-11.7l-1,13l-4.3,26.2L1397.7,352.1z"/>
				<path id="path3166" class="st36" d="M1404,354.2l6.6-35.7l0.6-10.1l-3.1,10.5l-6.9,34.5L1404,354.2z"/>
				<path id="path3168" class="st36" d="M1418.5,360l10.2-37.9l3.8-9l-0.9,11.2l-9.1,38.2L1418.5,360z"/>
			</g>
		</g>
		<g id="layer7">
			<g id="g12775">
				<path id="path2236" class="st37" d="M1621.6,286.1l1.5,0l1.3-8.3l0.6-3l-0.9-0.1l-0.1-0.6l1.1,0l0.9-6l0.4-3.3l0.4,3.4l0.9,5.9
					l0.9,0l0.1,0.7l-0.9-0.1l2.5,17.3l0.2,119.6l0,0l-33,0V292.1l2.5-17.5l-0.8,0.1l0.1-0.6l0.8-0.1l0.8-4.7l0.5-3.9l0.3,4l0.8,4.5
					l0.8,0.1l0,0.5l-0.7,0.1l0.8,3.6l2.4,8.2l1.5,0l6.9-27.7L1621.6,286.1L1621.6,286.1z"/>
				<path id="path7339" class="st37" d="M1825.7,286h2.1l1.3-8.4l0.6-3l-0.9-0.1l-0.1-0.6l1.1,0l0.9-6l0.4-3.3l0.4,3.4l0.9,5.9
					l0.9,0l0.1,0.7l-0.9-0.1l2.5,17.3l0.2,119.6l0,0l-33,0V291.8l2.5-17.5l-0.8,0.1l0.1-0.6l0.8-0.1l0.8-4.7l0.5-3.9l0.3,4l0.8,4.5
					l0.8,0.1l0,0.5l-0.7,0.1l0.8,3.6l2.1,8.6l1.9,0l6.8-28.1L1825.7,286L1825.7,286z"/>
				<path id="path7342" class="st37" d="M1802.2,311.6l-78.3,0V310c0,0,0.5-3.4-1.4-3.2c0.1,0-1.7-0.3-1.5,2.8l-3.8-0.1l0-2.6
					c0,0,2.6-3.4-0.9-4.7c-1.8,0.8-1.8,2.7-0.7,4.4c0.5,0.8,0.2,2.1,0.2,2.9l-3.9,0c0,0,0.1-2.8-1-2.8c0,0-2.4-0.7-1.8,4h-79v13.1
					h176v-12.3L1802.2,311.6L1802.2,311.6z"/>
				<g id="g13443">
					<path id="path8345" class="st38" d="M1600,324.8c-50.3,56.5-75.5,82.6-139.9,84.9c0,0-50.4,3.2-78.7-20.9c0,0.1,0,0.1,0,0.1"/>
					<path id="path8336" class="st38" d="M1599.2,321.8c0,0-71.7,74.8-139.4,83.4c0,0-35.2,3.3-79.5-21.6"/>
					<path id="path11254" class="st39" d="M1580.7,339.5l-5.4,12.7"/>
					<path id="path11256" class="st39" d="M1572.6,345.4l10.9-0.8"/>
					<path id="path11258" class="st39" d="M1574.1,345.8l-4,11l0,0l0.4-0.3"/>
					<path id="path11262" class="st39" d="M1553.6,362.4l11.3-0.9"/>
					<path id="path11264" class="st39" d="M1551.3,363.9l-10.5,18.7"/>
					<path id="path11266" class="st39" d="M1538.9,373.1l15.3,0.9"/>
					<path id="path11268" class="st39" d="M1536.9,373.7l-10.2,19.3"/>
					<path id="path11270" class="st39" d="M1525.7,380.3l13.4,5.7"/>
					<path id="path11272" class="st39" d="M1523.3,382.2l-10.7,17.7"/>
					<path id="path11274" class="st39" d="M1511.9,387.9l13.6,6.8"/>
					<path id="path11276" class="st39" d="M1510.7,389l-11.7,15.4"/>
					<path id="path11278" class="st39" d="M1498.5,394.5l12.2,6"/>
					<path id="path11280" class="st39" d="M1494.3,396.6l-9,11.1"/>
					<path id="path11282" class="st39" d="M1484.3,400l10.5,5.2"/>
					<path id="path11284" class="st39" d="M1480.5,401.6c-0.4,0-8.4,7.4-8.4,7.4"/>
					<path id="path11286" class="st39" d="M1471.6,403.3l8.9,4.8"/>
					<path id="path11288" class="st39" d="M1468.9,404.7l-6.6,5.3"/>
					<path id="path11290" class="st40" d="M1461.5,405.7l9.3,4.4"/>
					<path id="path12267" class="st40" d="M1579.9,346.8v71.8"/>
					<path id="path12269" class="st40" d="M1566.2,351.3V419"/>
					<path id="path12271" class="st40" d="M1552.6,360.9v58"/>
					<path id="path12273" class="st40" d="M1538.5,371.5v47.1"/>
					<path id="path12275" class="st40" d="M1524.3,380.3v38.3"/>
					<path id="path12277" class="st40" d="M1511.2,386.9v31.5l0.4-0.2l0,0"/>
					<path id="path12279" class="st40" d="M1497.4,393.4v25.2"/>
					<path id="path12281" class="st40" d="M1484.1,398.7V419"/>
					<path id="path12283" class="st40" d="M1470.2,403v16.2"/>
					<path id="path12376" class="st39" d="M1567,351.6l10.2-0.7"/>
					<path id="path12378" class="st39" d="M1563.1,354.5l-8.4,17.1"/>
					<path id="path7591" class="st40" d="M1443.9,418.3v-14"/>
					<path id="path7593" class="st40" d="M1429.4,418.3v-16.1"/>
					<path id="path7595" class="st40" d="M1415.7,418v-19.3"/>
					<path id="path7597" class="st40" d="M1402,417.5V394h0.4"/>
					<path id="path7599" class="st40" d="M1388.7,416.9v-28.9"/>
					<path id="path8572" class="st39" d="M1444.3,408.5l10.8-2.8"/>
					<path id="path8574" class="st39" d="M1444.4,404.1l11.5,5.6"/>
					<path id="path8576" class="st39" d="M1429.9,407.2l14.9-2.3"/>
					<path id="path8578" class="st39" d="M1430.1,402.1l14,7.8v-0.1l0,0"/>
					<path id="path8580" class="st39" d="M1415.9,405l13.1-2.5"/>
					<path id="path8582" class="st39" d="M1416.1,398.9l12.6,9.2"/>
					<path id="path8584" class="st39" d="M1402.3,401.4l13.3-2.9"/>
					<path id="path8586" class="st39" d="M1402.3,393.8l13.1,11.3l0,0"/>
					<path id="path8588" class="st39" d="M1388.9,395.2l12.8-1.2"/>
					<path id="path8590" class="st39" d="M1389.2,387.8l12.2,12.9"/>
				</g>
				<g id="g12056">
					<g id="g11860">
						<path id="path11862" class="st38" d="M1831.8,325.1c50.3,56.5,75.5,82.6,139.9,84.9c0,0,50.5,3.2,78.7-20.9"/>
						<path id="path11864" class="st38" d="M1832.6,322.2c0,0,71.7,74.8,139.4,83.4c0,0,35.2,3.3,79.5-21.6"/>
						<path id="path11866" class="st39" d="M1851,339.8l5.4,12.7"/>
						<path id="path11868" class="st39" d="M1859.1,345.7l-10.9-0.8"/>
						<path id="path11870" class="st39" d="M1857.7,346.1l4,11l0,0l-0.4-0.3"/>
						<path id="path11872" class="st39" d="M1878.2,362.8l-11.3-0.9"/>
						<path id="path11874" class="st39" d="M1880.5,364.2l10.5,18.7"/>
						<path id="path11876" class="st39" d="M1892.9,373.4l-15.3,0.9"/>
						<path id="path11878" class="st39" d="M1894.9,374l10.2,19.3"/>
						<path id="path11880" class="st39" d="M1906.1,380.7l-13.4,5.7"/>
						<path id="path11882" class="st39" d="M1908.5,382.5l10.6,17.7"/>
						<path id="path11884" class="st39" d="M1919.8,388.2l-13.6,6.8"/>
						<path id="path11886" class="st39" d="M1921.1,389.4l11.7,15.4"/>
						<path id="path11888" class="st39" d="M1933.3,394.9l-12.2,6"/>
						<path id="path11890" class="st39" d="M1937.5,396.9l9,11.1"/>
						<path id="path11892" class="st39" d="M1947.5,400.3l-10.5,5.2"/>
						<path id="path11894" class="st39" d="M1951.3,401.9c0.4,0,8.4,7.4,8.4,7.4"/>
						<path id="path11896" class="st39" d="M1960.2,403.7l-8.9,4.8"/>
						<path id="path11898" class="st39" d="M1962.9,405l6.5,5.3"/>
						<path id="path11900" class="st40" d="M1970.3,406l-9.3,4.4"/>
						<path id="path11902" class="st40" d="M1851.9,347.1v71.8"/>
						<path id="path11904" class="st40" d="M1865.6,351.6v67.7"/>
						<path id="path11906" class="st40" d="M1879.2,361.2v58"/>
						<path id="path11908" class="st40" d="M1893.3,371.9v47.1"/>
						<path id="path11910" class="st40" d="M1907.5,380.7v38.3"/>
						<path id="path11912" class="st40" d="M1920.6,387.2v31.5l-0.4-0.2v0"/>
						<path id="path11914" class="st40" d="M1934.4,393.7v25.2"/>
						<path id="path11916" class="st40" d="M1947.7,399.1v20.3"/>
						<path id="path11918" class="st40" d="M1961.6,403.4v16.2"/>
						<path id="path11920" class="st39" d="M1864.8,352l-10.2-0.7"/>
						<path id="path11922" class="st39" d="M1868.7,354.8l8.4,17.1"/>
						<path id="path11924" class="st40" d="M1987.9,418.6v-14"/>
						<path id="path11926" class="st40" d="M2002.4,418.6v-16.1"/>
						<path id="path11928" class="st40" d="M2016,418.3V399"/>
						<path id="path11930" class="st40" d="M2029.8,417.8v-23.4h-0.4"/>
						<path id="path11932" class="st40" d="M2043.1,417.2v-28.9"/>
						<path id="path11934" class="st39" d="M1987.5,408.8l-10.8-2.8"/>
						<path id="path11936" class="st39" d="M1987.4,404.4l-11.5,5.6"/>
						<path id="path11938" class="st39" d="M2001.9,407.6l-14.9-2.3"/>
						<path id="path11940" class="st39" d="M2001.6,402.5l-14,7.8v-0.1l0,0"/>
						<path id="path11942" class="st39" d="M2015.9,405.3l-13.1-2.5"/>
						<path id="path11944" class="st39" d="M2015.7,399.2l-12.6,9.2"/>
						<path id="path11946" class="st39" d="M2029.5,401.7l-13.3-2.9"/>
						<path id="path11948" class="st39" d="M2029.4,394.2l-13.1,11.3l0,0"/>
						<path id="path11950" class="st39" d="M2042.9,395.5l-12.7-1.2"/>
						<path id="path11952" class="st39" d="M2042.6,388.1l-12.2,12.9"/>
					</g>
					<path id="path11954" class="st41" d="M2070.5,384.1l46,31.2"/>
					<path id="path11956" class="st41" d="M2068.6,385.8l43.6,30.2"/>
				</g>
				<path id="path2241" class="st37" d="M1461.5,419.9l0-9.8c0,0-1.7-0.3-1.6-1c0.1-0.7,1.1-0.2,1.4-1.1c0.9-2.8-0.5-4.9-2.9-5
					c-2.7,0-3.9,2.1-3,5c0.3,0.9,1.3,0.4,1.4,1.1c0.1,0.7-1.6,1-1.6,1l-0.1,9.2v0.5L1461.5,419.9L1461.5,419.9z"/>
				<path id="path2249" class="st37" d="M1976.6,419.9l0-9.8c0,0-1.7-0.3-1.6-1.1c0.1-0.7,1-0.2,1.3-1.1c0.9-2.8-0.4-4.9-2.9-5
					c-2.7,0-4,2.1-3,5c0.3,0.9,1.3,0.4,1.3,1.1c0.1,0.7-1.6,1.1-1.6,1.1l-0.1,9.2v0.5L1976.6,419.9L1976.6,419.9z"/>
				<path id="path10593" class="st42" d="M1359.6,420l228.5,0v-1.5l0,0c0,0-203.2-0.5-228.5-0.5L1359.6,420L1359.6,420z"/>
				<path id="path2253" class="st42" d="M1359.7,411.2h228.9v4.9h-228.9V411.2L1359.7,411.2z"/>
				<g id="g2268">
					<path id="path2264" class="st37" d="M1844.1,411.5h408.3v5.1h-408.7L1844.1,411.5z"/>
					<path id="path2266" class="st37" d="M2251.7,418.7c-0.1,0-409.2-0.2-409.2-0.2l0,1.7h409.1L2251.7,418.7L2251.7,418.7z"/>
				</g>
				<path id="path2276" class="st37" d="M1792.2,411.2h53.5v34h-53.7L1792.2,411.2z"/>
				<path id="path2280" class="st37" d="M1587.3,411.2h53.5v34h-53.7L1587.3,411.2z"/>
				<g id="g4241">
					<path id="path2291" class="st37" d="M1636.2,414l68.8-38.5l2,4.6l-68.8,38.5L1636.2,414z"/>
					<path id="path2296" class="st43" d="M1636.6,437.1c0.1,0,41.8-38.8,69.5-54.7l1.9-1.1"/>
					<path id="path3270" class="st44" d="M1643.9,430l-6.7-13l12.5,5.5l-4.1-9.4l11.9,3.2l-4-9l11,3.1l-3.3-7.7l10.4,2.2l-2.8-6.2
						l8.6,1.3l-2.5-4.8l7.9,0.9l-2-4.1l6.8,0.5l-1.6-3.5l6.2,0.2l-2.3-5l0,0"/>
				</g>
				<g id="g4247">
					<path id="path4249" class="st37" d="M1795.8,413.3l-68.8-38.5l-2,4.6l68.8,38.5L1795.8,413.3z"/>
					<path id="path4251" class="st43" d="M1795.4,436.4c-0.1,0-41.8-38.8-69.5-54.7l-1.9-1.1"/>
					<path id="path4253" class="st44" d="M1788.1,429.3l6.7-13l-12.5,5.5l4.1-9.4l-11.9,3.2l4-9l-11,3.1l3.3-7.7l-10.4,2.2l2.8-6.2
						l-8.6,1.3l2.5-4.8l-7.9,0.9l2-4.1l-6.8,0.5l1.6-3.5l-6.2,0.2l2.3-5l0,0"/>
				</g>
				<path id="path12772" class="st45" d="M1370.3,343.7c0.2-0.1,0.4-0.5,0.4-0.8l0,0c0-0.5-0.3-0.8-0.7-0.8c-0.4,0-0.7,0.4-0.7,0.8
					c0,0.4,0.2,0.7,0.5,0.8l-0.1,4.6l-1.2,0v0.9h0.4c0,0,0.1,1.3-0.1,2.3c-3,8.8-5.8,9.9-5.8,9.9l-3.4,0l-1.6,3.5l0,12.1l-1.7,0
					l0,2.7h1.8v28.2l-2,5.8l0.1,29l0,0h27.4l-0.1-29.4l-2.1-5.8v-27.9h1.8l0-2.7l-1.7,0l0-12.1l-1.4-3.4l-3-0.1c0,0-2.4-1.7-5.8-10
					c-0.1-1.5,0-2.2,0-2.2l0,0l0.4,0l0-0.9h-1.2L1370.3,343.7L1370.3,343.7z"/>
				<path id="path12108" class="st45" d="M2061.1,343.7c0.3-0.1,0.5-0.5,0.5-0.8l0,0c0-0.5-0.3-0.8-0.7-0.8c-0.4,0-0.7,0.4-0.7,0.8
					c0,0.4,0.2,0.7,0.5,0.8l-0.1,4.6l-1.2,0v0.9h0.4c0,0,0.1,1.3-0.1,2.3c-3,8.8-5.8,9.9-5.8,9.9l-3.4,0l-1.6,3.5l0,12.1l-1.7,0
					l0,2.7h1.8v28.2l-2,5.8l0.1,29l0,0h27.4l-0.1-29.4l-2.1-5.8v-27.9h1.8l0-2.7l-1.7,0l0-12.1l-1.4-3.4l-3-0.1c0,0-2.4-1.7-5.8-10
					c-0.1-1.5,0-2.2,0-2.2l0,0l0.4,0v-0.9h-1.2L2061.1,343.7L2061.1,343.7z"/>
			</g>
		</g>
		<g id="layer4">
			<path id="path2912" class="st46" d="M1216.2,377.6h33v-5.3h-3.3v-4.3h-3.8V358l-2.3-1.5v-14.4l2.2-1.7v-1.7l-2.4-1.6v-1.5l0-1.1
				c0,0,0-0.9-0.7-1c0,0,0.5-1.5-0.6-2.1c0.1,0-0.7-99.8-0.7-99.8s-0.6-0.5-1-0.6c0.2-0.1,1-8.3,3.1-10.2c0-0.2,0-0.4,0-0.4l-0.4,0
				v-0.6l0.5-0.2v-0.5c0,0-2-0.2-2.4-1.1c0-0.1-0.8-4.6-2.9-5.1c0.1,0-1.4,0-1.6,0c-0.2,0-1.7,0-1.6,0c-1.7,0.3-2.9,5-2.9,5.1
				c-0.4,0.9-2.4,1.1-2.4,1.1v0.5l0.5,0.2v0.6l-0.4,0c0,0,0,0.2,0,0.4c2.1,1.9,2.9,10.1,3.1,10.2c-0.4,0.1-1,0.6-1,0.6
				s-0.9,99.8-0.7,99.8c-1.1,0.5-0.6,2-0.6,2.1c-0.8,0-0.7,1-0.7,1l0,1.1v1.5l-2.4,1.6v1.7l2.2,1.7v14.4l-2.3,1.5v9.9h-3.8v4.4h-3.3
				v5.3h33"/>
			<path id="path2914" class="st46" d="M1230.3,213.5l-3,0c0,0,0.9-1.3,1-2.1c0.2-0.8,1.1-0.9,1.2-1.5c0,0.2,0.8-5.7,1.2-5.9
				c0.3-0.2-0.3-0.3-0.3-0.3s-0.2,0.6-0.6,0.7c-0.3,0-0.6-1.8-0.6-1.8l0-2l0.2-0.2l0.1-0.6l0.9-0.2c0,0,0.4,0.1,0.6,0.4
				c0,0,0.4-0.5,0.7-0.4c0.3,0,0.1-1.2,0.1-1.2l-0.9-0.1c0,0,0.6-3.1,2-3.3c0,0,0-0.4,0.1-0.5c0.2-0.1,0.4-0.1,0.5,0
				c0,0,0.1,0.6,0.1,0.6s0.5,0.4,0.8,0.8c0-0.2,0.5,0.8,0.5,0.8s0.3,0,0.3,0.1c0.1,0.1,0,0.6,0,0.7c0,0-0.7,0.2-0.7,0.2l-0.4,0.2
				l-0.2,0.1l-0.1,1.5l0.6,0.4l0.1,0.2c0,0,0.6-0.1,1,0c0.1,0,0.4,0.7,0.3,1.3c-0.1,0.6,0.2,1.6,0.2,1.6l0.4,1l0.2,1.2l0.6,0.2
				l0.2,0.5l0,0.4l-0.6,0.3l-1.4,6.8l-0.4-0.2l1.6-6.8c0,0-0.4,0-0.5-0.2c-0.2-0.2-0.9-2-0.8-2.4c-0.1-0.1-0.3-0.1-0.3-0.1v0.8
				l0.2,0.1l0,3.8l-0.4,2l-0.8,0.1c0,0-0.2,0.7-0.1,0.8c0,0.1,1.1,0.1,1.1,1.4C1234.5,212.9,1230.3,213.6,1230.3,213.5L1230.3,213.5
				z"/>
		</g>
		<g id="layer3">
			<g id="g3766">
				<path id="path2836" d="M1092.3,154.6c0,4.3-3.1,7.7-6.9,7.7c-3.8,0-6.9-3.5-6.9-7.7c0-4.3,3.1-7.7,6.9-7.7
					C1089.2,146.8,1092.3,150.3,1092.3,154.6z"/>
				<path id="path2838" d="M1065.9,160.3c0,4.3-3.1,7.7-6.9,7.7c-3.8,0-6.9-3.5-6.9-7.7c0-4.3,3.1-7.7,6.9-7.7
					C1062.8,152.6,1065.9,156,1065.9,160.3z"/>
				<path id="path2840" d="M1044.7,169.6c0,4.3-3.1,7.7-6.9,7.7c-3.8,0-6.9-3.5-6.9-7.7c0-4.3,3.1-7.7,6.9-7.7
					C1041.6,161.9,1044.7,165.3,1044.7,169.6z"/>
				<path id="path2842" d="M1024.9,183.8c0,4.3-3.1,7.7-6.9,7.7c-3.8,0-6.9-3.5-6.9-7.7c0-4.3,3.1-7.7,6.9-7.7
					C1021.9,176,1024.9,179.5,1024.9,183.8z"/>
				<path id="path2844" d="M1008.8,201.4c0,4.3-3.1,7.7-6.9,7.7c-3.8,0-6.9-3.5-6.9-7.7c0-4.3,3.1-7.7,6.9-7.7
					C1005.7,193.7,1008.8,197.1,1008.8,201.4z"/>
				<path id="path2846" d="M995.7,222.3c0,4.3-3.1,7.7-6.9,7.7c-3.8,0-6.9-3.5-6.9-7.7c0-4.3,3.1-7.7,6.9-7.7
					C992.6,214.6,995.7,218,995.7,222.3z"/>
				<path id="path2848" d="M986,246.3c0,4.3-3.1,7.7-6.9,7.7c-3.8,0-6.9-3.5-6.9-7.7c0-4.3,3.1-7.7,6.9-7.7
					C982.9,238.5,986,242,986,246.3z"/>
				<path id="path2850" d="M980.8,271.7c0,4.3-3.1,7.7-6.9,7.7c-3.8,0-6.9-3.5-6.9-7.7c0-4.3,3.1-7.7,6.9-7.7
					C977.7,264,980.8,267.4,980.8,271.7z"/>
				<path id="path2852" d="M979.2,297.5c0,4.3-3.1,7.7-6.9,7.7c-3.8,0-6.9-3.5-6.9-7.7c0-4.3,3.1-7.7,6.9-7.7
					C976.1,289.8,979.2,293.2,979.2,297.5z"/>
				<path id="path2854" d="M983,324c0,4.3-3.1,7.7-6.9,7.7c-3.8,0-6.9-3.5-6.9-7.7c0-4.3,3.1-7.7,6.9-7.7
					C980,316.3,983,319.8,983,324z"/>
				<path id="path2856" d="M990.5,348.7c0,4.3-3.1,7.7-6.9,7.7c-3.8,0-6.9-3.5-6.9-7.7c0-4.3,3.1-7.7,6.9-7.7
					C987.4,341,990.5,344.5,990.5,348.7z"/>
				<path id="path2858" d="M1002.9,373.1c0,4.3-3.1,7.7-6.9,7.7c-3.8,0-6.9-3.5-6.9-7.7c0-4.3,3.1-7.7,6.9-7.7
					C999.9,365.4,1002.9,368.8,1002.9,373.1z"/>
				<path id="path2860" d="M1021.6,394.9c0,4.3-3.1,7.7-6.9,7.7c-3.8,0-6.9-3.5-6.9-7.7c0-4.3,3.1-7.7,6.9-7.7
					C1018.5,387.2,1021.6,390.6,1021.6,394.9z"/>
				<path id="path2862" d="M1042.4,411.4c0,4.3-3.1,7.7-6.9,7.7c-3.8,0-6.9-3.5-6.9-7.7c0-4.3,3.1-7.7,6.9-7.7
					C1039.3,403.7,1042.4,407.2,1042.4,411.4z"/>
				<path id="path2864" d="M1069.7,423.3c0,4.3-3.1,7.7-6.9,7.7c-3.8,0-6.9-3.5-6.9-7.7c0-4.3,3.1-7.7,6.9-7.7
					C1066.6,415.5,1069.7,419,1069.7,423.3z"/>
				<path id="path2866" d="M1100.9,426.1c0,4.3-3.1,7.7-6.9,7.7c-3.8,0-6.9-3.5-6.9-7.7c0-4.3,3.1-7.7,6.9-7.7
					C1097.8,418.4,1100.9,421.9,1100.9,426.1z"/>
				<path id="path2868" d="M1128.1,424.4c0,4.3-3.1,7.7-6.9,7.7c-3.8,0-6.9-3.5-6.9-7.7c0-4.3,3.1-7.7,6.9-7.7
					C1125,416.7,1128.1,420.2,1128.1,424.4z"/>
				<path id="path2870" d="M1156.7,413.8c0,4.3-3.1,7.7-6.9,7.7c-3.8,0-6.9-3.5-6.9-7.7c0-4.3,3.1-7.7,6.9-7.7
					C1153.6,406.1,1156.7,409.5,1156.7,413.8z"/>
				<path id="path2872" d="M1180.4,396.2c0,4.3-3.1,7.7-6.9,7.7c-3.8,0-6.9-3.5-6.9-7.7c0-4.3,3.1-7.7,6.9-7.7
					C1177.4,388.5,1180.4,391.9,1180.4,396.2z"/>
				<path id="path2874" d="M1198.2,374.9c0,4.3-3.1,7.7-6.9,7.7c-3.8,0-6.9-3.5-6.9-7.7c0-4.3,3.1-7.7,6.9-7.7
					C1195.2,367.2,1198.2,370.7,1198.2,374.9z"/>
				<path id="path2876" d="M1211.4,351.5c0,4.3-3.1,7.7-6.9,7.7c-3.8,0-6.9-3.5-6.9-7.7c0-4.3,3.1-7.7,6.9-7.7
					C1208.3,343.8,1211.4,347.2,1211.4,351.5z"/>
				<path id="path2878" d="M1219.6,325.7c0,4.3-3.1,7.7-6.9,7.7c-3.8,0-6.9-3.5-6.9-7.7c0-4.3,3.1-7.7,6.9-7.7
					C1216.5,318,1219.6,321.4,1219.6,325.7z"/>
				<path id="path2880" d="M1223.7,299.9c0,4.3-3.1,7.7-6.9,7.7c-3.8,0-6.9-3.5-6.9-7.7c0-4.3,3.1-7.7,6.9-7.7
					C1220.6,292.1,1223.7,295.6,1223.7,299.9z"/>
				<path id="path2882" d="M1223.2,273.2c0,4.3-3.1,7.7-6.9,7.7c-3.8,0-6.9-3.5-6.9-7.7c0-4.3,3.1-7.7,6.9-7.7
					C1220.1,265.4,1223.2,268.9,1223.2,273.2z"/>
				<path id="path2884" d="M1217.5,246.3c0,4.3-3.1,7.7-6.9,7.7c-3.8,0-6.9-3.5-6.9-7.7c0-4.3,3.1-7.7,6.9-7.7
					C1214.4,238.5,1217.5,242,1217.5,246.3z"/>
				<path id="path2886" d="M1208.4,223.7c0,4.3-3.1,7.7-6.9,7.7c-3.8,0-6.9-3.5-6.9-7.7c0-4.3,3.1-7.7,6.9-7.7
					C1205.4,216,1208.4,219.5,1208.4,223.7z"/>
				<path id="path2888" d="M1194.4,201.6c0,4.3-3.1,7.7-6.9,7.7c-3.8,0-6.9-3.5-6.9-7.7c0-4.3,3.1-7.7,6.9-7.7
					C1191.3,193.8,1194.4,197.3,1194.4,201.6z"/>
				<path id="path2890" d="M1178.5,184.1c0,4.3-3.1,7.7-6.9,7.7c-3.8,0-6.9-3.5-6.9-7.7c0-4.3,3.1-7.7,6.9-7.7
					C1175.4,176.4,1178.5,179.9,1178.5,184.1z"/>
				<path id="path2892" d="M1158.8,169.8c0,4.3-3.1,7.7-6.9,7.7c-3.8,0-6.9-3.5-6.9-7.7c0-4.3,3.1-7.7,6.9-7.7
					C1155.7,162,1158.8,165.5,1158.8,169.8z"/>
				<path id="path2894" d="M1137.4,159.9c0,4.3-3.1,7.7-6.9,7.7c-3.8,0-6.9-3.5-6.9-7.7c0-4.3,3.1-7.7,6.9-7.7
					C1134.3,152.2,1137.4,155.7,1137.4,159.9z"/>
				<path id="path2896" d="M1115.7,155c0,4.3-3.1,7.7-6.9,7.7c-3.8,0-6.9-3.5-6.9-7.7c0-4.3,3.1-7.7,6.9-7.7
					C1112.6,147.3,1115.7,150.8,1115.7,155z"/>
				<path id="path2898" class="st47" d="M1192.4,289.5c0,61.7-44.6,111.8-99.5,111.8c-55,0-99.5-50-99.5-111.8
					c0-61.7,44.6-111.8,99.5-111.8C1147.8,177.7,1192.4,227.8,1192.4,289.5z"/>
				<path id="path2900" class="st48" d="M1208.6,290.3c0,70.8-51.1,128.2-114.2,128.2c-63,0-114.2-57.4-114.2-128.2
					c0-70.8,51.1-128.2,114.2-128.2C1157.5,162.1,1208.6,219.5,1208.6,290.3z"/>
				<path id="path2902" class="st49" d="M1056.8,185.2l-10.3-9.9l0.8,15l-10-9.2l0.8,14.4l-9.3-8.7l1.9,14.5l-10-6.6l3.3,12.8
					l-12.6-3.7l5.5,11.7l-11.8-2.7l5.9,12l-13-2.1l7.8,11.3h-12.4l8,7.7l-12,2.4l8.2,7.6l-12.4,4.2l9,8.1l-10.5,6l9.7,5.4l-12.4,7.5
					l9.6,2.1l-10.1,9.9l11.2,1.5l-10.1,10.8l12.4,0.6l-10.6,10.9l12.4-0.3l-9.7,10.3l13.6,0.3l-9,10.5l12.4-1.5l-8.5,13.9l13.5-4.9
					l-7.8,15.9l13-6.4l-4.8,18.6l12.9-8.5l-3.8,18.8l13.4-9.4l-2.4,18.5l11.8-10.5l-1,19.4l11.7-13.1l2.2,18.9l10.8-13.4l3.1,18.9
					l9.3-15.3l4.7,17.7l7-16.7l7.6,17.7l4.8-17.6l7.7,16.4l4.3-18.6l9.8,15.4l2.1-18.4l11.2,14l0.5-18.9l11.9,12.8l-0.9-20
					l12.5,11.3l-2.6-18.4l11.7,10l-3.2-19.4l13.5,7.5l-4.8-18.9l13.8,6.2l-7.3-17l14.5,5.1l-9.8-16.7l15.2,1.5l-11.1-13.1l13.6-0.8
					l-11.4-11.6l14.4-4.2l-12.9-9.9l13.7-4l-12.6-7.3l12.7-4l-14.1-5.5l12.5-8.7l-15.3-1.4l11.6-9.6h-12.7l12.5-9.8l-16,0.5
					l10.3-12.3l-14.9,4.1l10.1-12.7l-14.5,1.5l6.6-14.8l-13.7,6l5.3-16.8l-12,8.1l3.4-17.2l-11.9,10l0.8-18.8l-10.1,11.4l-1.9-18.9
					l-11.8,10.4l-2.4-16.9l-9.1,12.9l-1.9-15.8l-8.4,14l-4.4-16l-5,13.8l-6.3-15.4l-4.2,15.4l-8.4-13.6l-1.1,14.5L1069,166
					l-0.6,15.3l-10-11.1L1056.8,185.2L1056.8,185.2z"/>
				<path id="path2904" class="st50" d="M1101.9,286.7c0,4.8-3.4,8.6-7.7,8.6c-4.2,0-7.7-3.9-7.7-8.6c0-4.8,3.4-8.6,7.7-8.6
					C1098.5,278.1,1101.9,281.9,1101.9,286.7z"/>
				<path id="path2906" class="st51" d="M1090.9,294.1l2.4,0c0,0-3.6,38.6-14.2,148.1l-12.5-0.3"/>
				<path id="path2908" class="st52" d="M1095.9,293.9l-2.5,0c0,0,5.1,46.4,15.9,148.6l11.5-0.8"/>
			</g>
		</g>
		<g id="layer2">
			<g id="g3522">
				<g id="g3172">
					<g id="g3174">
						<path id="path3176" class="st53" d="M959.7,402.5V283.3h2.1V254h-4v-4.7H956l-5.4-10v-9.1l-5.8-20.6l0-3.8v3.8l-6.3,20.6v9.1
							l-5.4,10h-1.8v4.7h-4v29.3h2.1v119.2L959.7,402.5L959.7,402.5z"/>
						<path id="path3178" class="st54" d="M953,268c0,5.7-4.1,10.3-9.2,10.3c-5.1,0-9.2-4.6-9.2-10.3c0-5.7,4.1-10.3,9.2-10.3
							C948.9,257.7,953,262.3,953,268z"/>
					</g>
					<path id="path3180" class="st55" d="M896.2,348.7l49.7-0.2v54l-49.8,0.2L896.2,348.7z"/>
				</g>
				<path id="path3182" class="st55" d="M330.7,244.7l-7,12.1l-0.3-39.7l-4.5-7.6l-5.8,7.4l-0.1,184l58-23.5v23.6l0.1-183.2
					l-4.8-8.9l-5.6,8.3v39.9l-6.8-12l-6.3,0l-0.1-11.4l-5.5-10l-5.5,10.2l0,10.9L330.7,244.7L330.7,244.7z"/>
				<path id="path3184" class="st56" d="M605.4,380.6v-52.4l-5.8-18.1v-14.7c0,0-9.7-26.7-10.1-45.3c-0.2-0.7-0.2-0.7-0.4,0
					c-0.4,18.6-10.1,45.3-10.1,45.3v14.7l-5.8,14.3v56.2"/>
				<path id="path3186" class="st57" d="M521.8,442.2h-33.3V323.6l4.3-11l3.4,10.9l0,11.2h18.2v-12.2l3.6-9.9l3.7,10.1L521.8,442.2z
					"/>
				<path id="path3188" class="st57" d="M690.1,442.3h-33.3V323.6l4.3-11l3.4,10.9l0,11.2h18.2v-12.2l3.6-9.9l3.7,10.1L690.1,442.3z
					"/>
				<g id="g3190">
					<path id="path3192" class="st37" d="M341.3,442.2H308V323.6l4.3-11l3.4,10.9l0,11.2H334v-12.2l3.6-9.9l3.7,10.1L341.3,442.2
						L341.3,442.2z"/>
					<path id="path3194" class="st37" d="M286.8,442.2l-33.3,0.1V323.6l4.3-11l3.4,10.9l0,11.2h18.2v-12.2l3.6-9.9l3.7,10.1
						L286.8,442.2z"/>
					<path id="path3196" class="st58" d="M292.1,355l0.1,0.9c0.9,0.6,1,2.2,1,2.2l0,9.4l-2.1,0l0-9.4c0,0,0.1-1.6,1-2.2l0.1-0.9
						H292.1L292.1,355z"/>
					<path id="path3198" class="st59" d="M266.2,367.8h63.1l-1.5,74.1l-62.1,0L266.2,367.8L266.2,367.8z"/>
					<path id="path3200" class="st58" d="M303.6,355l0.1,0.9c0.9,0.6,1,2.2,1,2.2l0,9.4l-2.1,0l0-9.4c0,0,0.1-1.6,1-2.2l0.1-0.9
						H303.6L303.6,355z"/>
				</g>
				<g id="g3202">
					<path id="path3204" class="st37" d="M925.3,442.2h-33.3V323.6l4.3-11l3.4,10.9l0,11.2H918v-12.2l3.6-9.9l3.7,10.1L925.3,442.2
						L925.3,442.2z"/>
					<path id="path3206" class="st37" d="M870.8,442.3h-33.3V323.6l4.3-11l3.4,10.9l0,11.2h18.2v-12.2l3.6-9.9l3.7,10.1L870.8,442.3
						L870.8,442.3z"/>
					<path id="path3208" class="st58" d="M876.1,355l0.1,0.9c0.9,0.6,1,2.2,1,2.2l0,9.4l-2.1,0l0-9.4c0,0,0.1-1.6,1-2.2l0.1-0.9
						H876.1L876.1,355z"/>
					<path id="path3210" class="st60" d="M851.1,367.8h61.4l-1.4,74.1l-60.4,0L851.1,367.8L851.1,367.8z"/>
					<path id="path3212" class="st58" d="M887.7,355l0.1,0.9c0.9,0.6,1,2.2,1,2.2l0,9.4l-2.1,0l0-9.4c0,0,0.1-1.6,1-2.2l0.1-0.9
						H887.7L887.7,355z"/>
				</g>
				<g id="g3214">
					<path id="path3216" class="st58" d="M351,364.9l0.1,0.9c0.9,0.6,1,2.2,1,2.2l0,9.4l-2.2,0l0-9.4c0,0,0.1-1.6,1-2.2l0.1-0.9H351
						L351,364.9z"/>
					<path id="path3218" class="st58" d="M363.6,364.9l0.1,0.9c0.9,0.6,1,2.2,1,2.2l0,9.4l-2.2,0l0-9.4c0,0,0.1-1.6,1-2.2l0.1-0.9
						H363.6L363.6,364.9z"/>
					<path id="path3220" class="st58" d="M376.6,364.9l0.1,0.9c0.9,0.6,1,2.2,1,2.2l0,9.4l-2.1,0l0-9.4c0,0,0.1-1.6,1-2.2l0.1-0.9
						H376.6L376.6,364.9z"/>
					<path id="path3222" class="st58" d="M389.2,364.9l0.1,0.9c0.9,0.6,1,2.2,1,2.2l0,9.4l-2.1,0l0-9.4c0,0,0.1-1.6,1-2.2l0.1-0.9
						H389.2L389.2,364.9z"/>
					<path id="path3224" class="st58" d="M402.1,365.1l0.1,0.9c0.9,0.6,1,2.2,1,2.2l0,9.4l-2.2,0l0-9.4c0,0,0.1-1.6,1-2.2l0.1-0.9
						H402.1z"/>
					<path id="path3226" class="st58" d="M414.8,365.1l0.1,0.9c0.9,0.6,1,2.2,1,2.2l0,9.4l-2.2,0l0-9.4c0,0,0.1-1.6,1-2.2l0.1-0.9
						H414.8L414.8,365.1z"/>
					<path id="path3228" class="st58" d="M427.7,365.1l0.1,0.9c0.9,0.6,1,2.2,1,2.2l0,9.4l-2.1,0l0-9.4c0,0,0.1-1.6,1-2.2l0.1-0.9
						H427.7z"/>
					<path id="path3230" class="st58" d="M440.4,365.1l0.1,0.9c0.9,0.6,1,2.2,1,2.2l0,9.4l-2.1,0l0-9.4c0,0,0.1-1.6,1-2.2l0.1-0.9
						H440.4z"/>
					<path id="path3232" class="st58" d="M453.8,364.6l0.1,0.9c0.9,0.6,1,2.2,1,2.2l0,9.4l-2.1,0l0-9.4c0,0,0.1-1.6,1-2.2l0.1-0.9
						L453.8,364.6L453.8,364.6z"/>
					<path id="path3234" class="st58" d="M466.8,364.6l0.1,0.9c0.9,0.6,1,2.2,1,2.2l0,9.4l-2.1,0l0-9.4c0,0,0.1-1.6,1-2.2l0.1-0.9
						L466.8,364.6L466.8,364.6z"/>
					<path id="path3236" class="st58" d="M479.4,364.6l0.1,0.9c0.9,0.6,1,2.2,1,2.2l0,9.4l-2.1,0l0-9.4c0,0,0.1-1.6,1-2.2l0.1-0.9
						L479.4,364.6L479.4,364.6z"/>
					<path id="path3238" class="st61" d="M317.4,377h195.1v65.2l-195.8,0.1L317.4,377z"/>
				</g>
				<g id="g3240">
					<path id="path3242" class="st62" d="M698.8,364.9l0.1,0.9c0.9,0.6,1,2.2,1,2.2l0,9.4l-2.2,0l0-9.4c0,0,0.1-1.6,1-2.2l0.1-0.9
						H698.8L698.8,364.9z"/>
					<path id="path3244" class="st62" d="M711.6,364.9l0.1,0.9c0.9,0.6,1,2.2,1,2.2l0,9.4l-2.2,0l0-9.4c0,0,0.1-1.6,1-2.2l0.1-0.9
						H711.6z"/>
					<path id="path3246" class="st62" d="M724.7,364.9l0.1,0.9c0.9,0.6,1,2.2,1,2.2l0,9.4l-2.2,0l0-9.4c0,0,0.1-1.6,1-2.2l0.1-0.9
						H724.7L724.7,364.9z"/>
					<path id="path3248" class="st62" d="M737.5,364.9l0.1,0.9c0.9,0.6,1,2.2,1,2.2l0,9.4l-2.2,0l0-9.4c0,0,0.1-1.6,1-2.2l0.1-0.9
						H737.5L737.5,364.9z"/>
					<path id="path3250" class="st62" d="M750.5,365.2l0.1,0.9c0.9,0.6,1,2.2,1,2.2l0,9.4l-2.2,0l0-9.4c0,0,0.1-1.6,1-2.2l0.1-0.9
						H750.5L750.5,365.2z"/>
					<path id="path3252" class="st62" d="M763.4,365.2l0.1,0.9c0.9,0.6,1,2.2,1,2.2l0,9.4l-2.2,0l0-9.4c0,0,0.1-1.6,1-2.2l0.1-0.9
						H763.4L763.4,365.2z"/>
					<path id="path3254" class="st62" d="M776.5,365.2l0.1,0.9c0.9,0.6,1,2.2,1,2.2l0,9.4l-2.2,0l0-9.4c0,0,0.1-1.6,1-2.2l0.1-0.9
						H776.5L776.5,365.2z"/>
					<path id="path3256" class="st62" d="M789.3,365.2l0.1,0.9c0.9,0.6,1,2.2,1,2.2l0,9.4l-2.2,0l0-9.4c0,0,0.1-1.6,1-2.2l0.1-0.9
						H789.3L789.3,365.2z"/>
					<path id="path3258" class="st62" d="M802.9,364.7l0.1,0.9c0.9,0.6,1,2.2,1,2.2l0,9.4l-2.2,0l0-9.4c0,0,0.1-1.6,1-2.2l0.1-0.9
						H802.9L802.9,364.7z"/>
					<path id="path3260" class="st62" d="M816,364.7l0.1,0.9c0.9,0.6,1,2.2,1,2.2l0,9.4l-2.2,0l0-9.4c0,0,0.1-1.6,1-2.2l0.1-0.9H816
						L816,364.7z"/>
					<path id="path3262" class="st62" d="M828.9,364.7l0.1,0.9c0.9,0.6,1,2.2,1,2.2l0,9.4l-2.2,0l0-9.4c0,0,0.1-1.6,1-2.2l0.1-0.9
						H828.9L828.9,364.7z"/>
					<path id="path3264" class="st63" d="M667.7,377.1h191.7v65.2H667L667.7,377.1z"/>
				</g>
				<g id="g3266">
					<path id="path3268" class="st58" d="M529.7,356.2l0.1,0.9c0.9,0.6,1,2.2,1,2.2l0,9.4l-2.1,0l0-9.4c0,0,0.1-1.6,1-2.2l0.1-0.9
						H529.7z"/>
					<path id="path3271" class="st58" d="M543,356.1l0.1,0.9c0.9,0.6,1,2.2,1,2.2l0,9.4l-2.1,0l0-9.4c0,0,0.1-1.6,1-2.2l0.1-0.9
						L543,356.1z"/>
					<path id="path3273" class="st58" d="M556,356.1l0.1,0.9c0.9,0.6,1,2.2,1,2.2l0,9.4l-2.1,0l0-9.4c0,0,0.1-1.6,1-2.2l0.1-0.9
						L556,356.1z"/>
					<path id="path3275" class="st58" d="M569.2,356.1l0.1,0.9c0.9,0.6,1,2.2,1,2.2l0,9.4l-2.1,0l0-9.4c0,0,0.1-1.6,1-2.2l0.1-0.9
						L569.2,356.1z"/>
					<path id="path3277" class="st58" d="M582.3,356.1l0.1,0.9c0.9,0.6,1,2.2,1,2.2l0,9.4l-2.1,0l0-9.4c0,0,0.1-1.6,1-2.2l0.1-0.9
						L582.3,356.1z"/>
					<path id="path3279" class="st58" d="M595.3,356.1l0.1,0.9c0.9,0.6,1,2.2,1,2.2l0,9.4l-2.2,0l0-9.4c0,0,0.1-1.6,1-2.2l0.1-0.9
						L595.3,356.1z"/>
					<path id="path3281" class="st58" d="M608.1,356.1l0.1,0.9c0.9,0.6,1,2.2,1,2.2l0,9.4l-2.1,0l0-9.4c0,0,0.1-1.6,1-2.2l0.1-0.9
						L608.1,356.1z"/>
					<path id="path3283" class="st58" d="M621.2,356.1l0.1,0.9c0.9,0.6,1,2.2,1,2.2l0,9.4l-2.1,0l0-9.4c0,0,0.1-1.6,1-2.2l0.1-0.9
						L621.2,356.1z"/>
					<path id="path3285" class="st58" d="M634.4,356.1l0.1,0.9c0.9,0.6,1,2.2,1,2.2l0,9.4l-2.1,0l0-9.4c0,0,0.1-1.6,1-2.2l0.1-0.9
						L634.4,356.1z"/>
					<path id="path3287" class="st58" d="M647.6,356.1l0.1,0.9c0.9,0.6,1,2.2,1,2.2l0,9.4l-2.2,0l0-9.4c0,0,0.1-1.6,1-2.2l0.1-0.9
						L647.6,356.1z"/>
					<path id="path3289" class="st64" d="M498.9,368.7h181.3v73.5H498.1L498.9,368.7z"/>
				</g>
			</g>
		</g>
	</g>
</g>
</svg>
